<svg enable-background="new 0 0 80 14.8" viewBox="0 0 80 14.8" xmlns="http://www.w3.org/2000/svg"><path d="m16 7.3c0-4-3.2-7.3-7.3-7.3-2.7 0-5 1.5-6.3 3.7l3.6 3.6c0-1.6 1.3-2.8 2.8-2.8 1.6 0 2.8 1.3 2.8 2.8s-1.2 2.8-2.8 2.8h-6c-1.5 0-2.7 1.2-2.7 2.7v1.8h8.8c3.9-.1 7.1-3.3 7.1-7.3" fill="#0dbdff"/><path d="m49.2 6.4h3.4c1.3 0 2-.6 2-1.8s-.7-1.8-2-1.8h-3.4zm1.9 2.8h-2v5.3h-3v-12.9c0-.9.7-1.6 1.6-1.6h4.9c3.1 0 5.1 1.9 5.1 4.6 0 2.2-1.2 3.8-3.4 4.4l3.8 5.5h-3.6zm28.9 5c-.6.4-1.3.7-2.1.7-2.1 0-3.1-1.4-3.1-3.5v-10.6l2.9-.7v11.3c0 .6.3.9.8.9.2 0 .3 0 .5-.1zm-5 0c-.6.4-1.3.7-2.1.7-2.1 0-3.1-1.4-3.1-3.5v-9.4l2.9-.7v10.1c0 .6.3.9.8.9.2 0 .3 0 .5-.1zm-9.1-4.9c0-1.7-1.1-2.9-2.7-2.9s-2.7 1.1-2.7 2.9 1.1 2.9 2.7 2.9 2.7-1.2 2.7-2.9m-8.3 0c0-3.2 2.4-5.5 5.6-5.5 3.3 0 5.7 2.2 5.7 5.5s-2.4 5.5-5.7 5.5c-3.2 0-5.6-2.3-5.6-5.5m-33.2-.6 2.1-5.6 2.1 5.6zm-.1-7.7-5.3 13.5h3.2l1.1-3h6.3l1.1 3h3.3l-5.7-14.5h-2.4c-.7 0-1.3.4-1.6 1m14.9 11.1c-1.6 0-2.7-1.1-2.7-2.9s1.1-2.9 2.7-2.9 2.7 1.1 2.7 2.9-1.1 2.9-2.7 2.9m2.5-7c-.7-.8-1.8-1.3-3.1-1.3-2.8 0-5.1 2.2-5.1 5.5s2.2 5.5 5 5.5c1.5 0 2.6-.6 3.3-1.7l.1 1.4h2.6v-14.5h-1.2c-.9 0-1.6.7-1.6 1.6z" fill="#333"/></svg>